# xmcd
# 
# Track frame offsets:
#     150
#     10060
#     18818
#     30488
#     41944
#     52742
#     62934
#     72280
#     82565
#     93777
#     105119
#     115176
#     127484
#     138235
#     148848
#     162885
#     173464
#     185538
#     196153
#     206445
# 
# Disc length: 2912
# 
# Revision: 2
# Processed by: cddbd v1.5.2PL0 Copyright (c) Steve Scherf et al.
# Submitted via: fre:ac v1.0.17
# 
DISCID=fc0b5e14
DTITLE=Various Artist - B100 Rock 'n' Roll Favourites [CD3]
DYEAR=0
DGENRE=Rock and Roll
TTITLE0=Bille Haley - Rock arround the clock
TTITLE1=Eddie Cochran - Summertime blues
TTITLE2=Gene Vincent - Be bop a lula
TTITLE3=Elvis Pressley - One night
TTITLE4=Chuck Berry - Maybeline
TTITLE5=Carl Perkins - Blue side shoes
TTITLE6=Little Richard - Long tall sally
TTITLE7=Buddy Holly - That´ll be the day
TTITLE8=Danny& the Juniors - Rockn Roll ist here to stay
TTITLE9=Elvis Pressley - Jailhouse Rock
TTITLE10=Roy Orbison - Ooby dooby
TTITLE11=Johnny Cash - I walk the line
TTITLE12=Cliff Richard - Move it
TTITLE13=Billy Fury - Halfway to paradise
TTITLE14=Chuck Berry - Sweet little sixteen
TTITLE15=Marty Wilde - Endless Sleep
TTITLE16=Les Paul& Mary Ford - Hummingbird
TTITLE17=Little Richard - Rip it up
TTITLE18=Roy Orbison - I was a fool
TTITLE19=Hank Williams - Your cheatin heart
EXTD=
EXTT0=
EXTT1=
EXTT2=
EXTT3=
EXTT4=
EXTT5=
EXTT6=
EXTT7=
EXTT8=
EXTT9=
EXTT10=
EXTT11=
EXTT12=
EXTT13=
EXTT14=
EXTT15=
EXTT16=
EXTT17=
EXTT18=
EXTT19=
PLAYORDER=
